<?xml version="1.0" encoding="UTF-8" standalone="no"?>
<!-- Created with Inkscape (http://www.inkscape.org/) -->

<svg
   xmlns:dc="http://purl.org/dc/elements/1.1/"
   xmlns:cc="http://creativecommons.org/ns#"
   xmlns:rdf="http://www.w3.org/1999/02/22-rdf-syntax-ns#"
   xmlns:svg="http://www.w3.org/2000/svg"
   xmlns="http://www.w3.org/2000/svg"
   xmlns:sodipodi="http://sodipodi.sourceforge.net/DTD/sodipodi-0.dtd"
   xmlns:inkscape="http://www.inkscape.org/namespaces/inkscape"
   width="180mm"
   height="180mm"
   viewBox="0 0 180 180"
   version="1.1"
   id="svg8"
   inkscape:version="0.92.4 (5da689c313, 2019-01-14)"
   sodipodi:docname="logo-abes-base.svg"
   inkscape:export-filename="C:\Users\arnaud\Documents\logos\abes\logo-abes-slideshare.png"
   inkscape:export-xdpi="71.992683"
   inkscape:export-ydpi="71.992683">
  <defs
     id="defs2" />
  <sodipodi:namedview
     id="base"
     pagecolor="#ffffff"
     bordercolor="#666666"
     borderopacity="1.0"
     inkscape:pageopacity="0.0"
     inkscape:pageshadow="2"
     inkscape:zoom="0.87974027"
     inkscape:cx="211.53784"
     inkscape:cy="327.79576"
     inkscape:document-units="mm"
     inkscape:current-layer="layer3"
     showgrid="false"
     inkscape:window-width="1920"
     inkscape:window-height="1057"
     inkscape:window-x="1912"
     inkscape:window-y="-8"
     inkscape:window-maximized="1"
     showguides="false"
     inkscape:guide-bbox="true">
    <sodipodi:guide
       position="24.190477,110.36905"
       orientation="1,0"
       id="guide6620"
       inkscape:locked="false" />
  </sodipodi:namedview>
  <metadata
     id="metadata5">
    <rdf:RDF>
      <cc:Work
         rdf:about="">
        <dc:format>image/svg+xml</dc:format>
        <dc:type
           rdf:resource="http://purl.org/dc/dcmitype/StillImage" />
        <dc:title />
      </cc:Work>
    </rdf:RDF>
  </metadata>
  <g
     inkscape:groupmode="layer"
     id="layer3"
     inkscape:label="logo vectoriel"
     style="display:inline">
    <g
       id="g4503"
       transform="matrix(1.762607,0,0,-1.7679188,35.452232,78.602888)"
       inkscape:export-xdpi="23.452005"
       inkscape:export-ydpi="23.452005">
      <path
         d="m 0,0 c -0.904,0 -1.803,-0.038 -2.695,-0.115 -0.893,-0.076 -1.757,-0.306 -2.591,-0.689 -0.859,-0.383 -1.571,-0.918 -2.14,-1.606 -0.568,-0.689 -0.851,-1.544 -0.851,-2.564 0,-0.204 0.034,-0.478 0.104,-0.822 0.069,-0.345 0.208,-0.683 0.417,-1.015 0.209,-0.331 0.504,-0.611 0.887,-0.84 0.383,-0.23 0.898,-0.345 1.548,-0.345 0.533,0 1.078,0.14 1.634,0.421 0.557,0.28 1.079,0.612 1.565,0.995 0.487,0.382 0.916,0.765 1.287,1.147 0.371,0.383 0.649,0.689 0.835,0.918 z M 0.069,3.825 C 0.069,4.132 0.052,4.463 0.018,4.82 -0.018,5.177 -0.134,5.509 -0.33,5.814 -0.527,6.121 -0.847,6.382 -1.287,6.599 -1.728,6.815 -2.343,6.924 -3.13,6.924 -4.081,6.924 -4.944,6.739 -5.722,6.369 -6.498,5.999 -7.304,5.521 -8.139,4.935 l -0.973,2.41 c 0.695,0.357 1.304,0.65 1.826,0.88 0.521,0.229 1.014,0.415 1.477,0.554 0.464,0.141 0.916,0.237 1.357,0.287 0.44,0.051 0.916,0.078 1.426,0.078 0.185,0 0.429,-0.007 0.73,-0.02 0.302,-0.013 0.626,-0.058 0.975,-0.134 0.347,-0.076 0.7,-0.191 1.06,-0.344 C 0.099,8.493 0.44,8.288 0.765,8.034 1.183,7.702 1.501,7.357 1.722,7.001 1.941,6.644 2.104,6.293 2.208,5.948 2.313,5.604 2.37,5.272 2.382,4.954 2.394,4.635 2.399,4.348 2.399,4.093 V -6.045 c 0,-0.511 0.064,-0.887 0.192,-1.129 C 2.718,-7.416 2.84,-7.588 2.956,-7.69 3.118,-7.818 3.27,-7.895 3.408,-7.92 3.547,-7.945 3.86,-7.958 4.348,-7.958 v -2.104 c -0.65,0 -1.172,0.019 -1.566,0.057 -0.394,0.039 -0.754,0.16 -1.078,0.364 -0.232,0.153 -0.434,0.35 -0.608,0.593 -0.174,0.242 -0.314,0.497 -0.418,0.765 -0.105,0.267 -0.186,0.529 -0.243,0.784 -0.059,0.255 -0.087,0.459 -0.087,0.612 0,0.204 -0.012,0.345 -0.036,0.421 -0.023,0 -0.04,0.006 -0.051,0.02 -0.012,0.012 -0.03,0.018 -0.052,0.018 -0.047,0 -0.082,-0.012 -0.105,-0.038 -0.417,-0.535 -0.84,-1.02 -1.269,-1.454 -0.43,-0.434 -0.876,-0.803 -1.339,-1.109 -0.465,-0.306 -0.969,-0.549 -1.514,-0.727 -0.544,-0.178 -1.153,-0.267 -1.825,-0.267 -1.02,0 -1.791,0.152 -2.313,0.459 -0.522,0.305 -0.945,0.65 -1.27,1.033 -0.255,0.305 -0.464,0.624 -0.626,0.956 -0.162,0.331 -0.284,0.65 -0.364,0.956 -0.082,0.307 -0.14,0.587 -0.175,0.842 -0.034,0.255 -0.052,0.459 -0.052,0.612 0,0.867 0.133,1.626 0.401,2.276 0.265,0.651 0.591,1.199 0.973,1.646 0.383,0.445 0.783,0.808 1.2,1.09 0.418,0.28 0.765,0.484 1.044,0.612 1.182,0.561 2.347,0.886 3.495,0.976 1.147,0.088 2.347,0.133 3.599,0.133 z"
         style="fill:#000001;fill-opacity:1;fill-rule:nonzero;stroke:none"
         id="path4505"
         inkscape:connector-curvature="0" />
    </g>
    <g
       id="g4507"
       transform="matrix(1.762607,0,0,-1.7679188,60.985885,92.535502)"
       inkscape:export-xdpi="23.452005"
       inkscape:export-ydpi="23.452005">
      <path
         d="m 0,0 c 0.769,0 1.414,0.223 1.938,0.669 0.524,0.446 0.943,1.026 1.257,1.741 0.314,0.713 0.541,1.498 0.681,2.353 0.14,0.854 0.21,1.702 0.21,2.544 0,0.331 -0.024,0.905 -0.07,1.721 -0.047,0.816 -0.192,1.652 -0.437,2.506 -0.244,0.855 -0.64,1.607 -1.187,2.257 -0.547,0.65 -1.322,0.976 -2.323,0.976 -0.628,0 -1.227,-0.179 -1.798,-0.536 -0.57,-0.357 -1.071,-0.867 -1.5,-1.53 C -3.661,12.037 -3.998,11.24 -4.243,10.31 -4.487,9.379 -4.609,8.34 -4.609,7.192 -4.609,6.324 -4.51,5.464 -4.312,4.609 -4.114,3.755 -3.818,2.983 -3.422,2.295 -3.026,1.606 -2.544,1.052 -1.973,0.631 -1.402,0.21 -0.745,0 0,0 m -4.574,25.211 v -11.63 c 0,-0.077 0.022,-0.153 0.069,-0.229 0.046,-0.078 0.105,-0.116 0.174,-0.116 0.116,0 0.191,0.033 0.227,0.096 0.034,0.064 0.074,0.147 0.121,0.249 0.162,0.331 0.359,0.694 0.591,1.09 0.232,0.395 0.516,0.759 0.852,1.091 0.336,0.331 0.736,0.605 1.2,0.822 0.464,0.217 1.031,0.325 1.704,0.325 0.441,0 1.003,-0.102 1.687,-0.305 C 2.734,16.398 3.396,15.972 4.033,15.321 4.671,14.671 5.216,13.734 5.668,12.51 6.12,11.285 6.347,9.641 6.347,7.574 6.347,7.243 6.334,6.81 6.312,6.273 6.288,5.738 6.225,5.158 6.12,4.533 6.016,3.908 5.871,3.264 5.686,2.602 5.5,1.937 5.256,1.325 4.955,0.765 4.584,0.076 4.178,-0.466 3.738,-0.861 3.297,-1.257 2.862,-1.544 2.434,-1.722 2.004,-1.9 1.604,-2.009 1.233,-2.047 0.862,-2.085 0.55,-2.104 0.295,-2.104 c -0.534,0 -1.009,0.083 -1.426,0.249 -0.418,0.165 -0.789,0.376 -1.113,0.63 -0.325,0.255 -0.604,0.53 -0.835,0.823 C -3.311,-0.109 -3.508,0.165 -3.67,0.421 -3.693,0.472 -3.739,0.555 -3.81,0.669 -3.879,0.784 -3.948,0.904 -4.018,1.032 -4.088,1.16 -4.157,1.274 -4.227,1.377 -4.296,1.479 -4.343,1.53 -4.365,1.53 -4.412,1.53 -4.47,1.517 -4.54,1.491 -4.609,1.466 -4.644,1.352 -4.644,1.147 v -3.443 l -2.226,1.377 v 24.753 z"
         style="fill:#000001;fill-opacity:1;fill-rule:nonzero;stroke:none"
         id="path4509"
         inkscape:connector-curvature="0" />
    </g>
    <g
       id="g4511"
       transform="matrix(1.762607,0,0,-1.7679188,95.282868,75.830084)"
       inkscape:export-xdpi="23.452005"
       inkscape:export-ydpi="23.452005">
      <path
         d="M 0,0 V 0.688 C 0,0.969 -0.023,1.275 -0.069,1.606 -0.116,1.937 -0.186,2.282 -0.278,2.64 -0.371,2.996 -0.51,3.341 -0.695,3.673 -1.043,4.31 -1.495,4.763 -2.052,5.03 -2.608,5.299 -3.153,5.433 -3.687,5.433 -4.684,5.433 -5.576,5.018 -6.364,4.189 -7.153,3.36 -7.629,1.964 -7.79,0 Z m -7.86,-1.837 c 0,-0.841 0.052,-1.709 0.157,-2.6 0.103,-0.894 0.318,-1.709 0.643,-2.45 0.325,-0.739 0.777,-1.345 1.356,-1.816 0.58,-0.473 1.345,-0.708 2.296,-0.708 0.788,0 1.478,0.172 2.069,0.516 0.591,0.344 1.13,0.848 1.617,1.511 l 1.6,-1.377 c -0.742,-1.02 -1.524,-1.741 -2.348,-2.162 -0.823,-0.421 -1.825,-0.631 -3.008,-0.631 -1.113,0 -2.086,0.261 -2.921,0.784 -0.835,0.523 -1.531,1.211 -2.087,2.067 -0.556,0.853 -0.98,1.816 -1.27,2.888 -0.29,1.071 -0.434,2.155 -0.434,3.252 0,1.122 0.086,2.276 0.26,3.462 0.174,1.186 0.586,2.353 1.236,3.5 0.672,1.173 1.454,1.99 2.347,2.449 0.892,0.459 1.814,0.688 2.765,0.688 1.274,0 2.295,-0.28 3.061,-0.841 C 0.243,6.134 0.835,5.406 1.252,4.515 1.67,3.621 1.948,2.614 2.087,1.492 2.226,0.369 2.318,-0.74 2.365,-1.837 Z"
         style="fill:#000001;fill-opacity:1;fill-rule:nonzero;stroke:none"
         id="path4513"
         inkscape:connector-curvature="0" />
    </g>
    <g
       id="g4515"
       transform="matrix(1.762607,0,0,-1.7679188,106.3783,88.951401)"
       inkscape:export-xdpi="23.452005"
       inkscape:export-ydpi="23.452005">
      <path
         d="m 0,0 c 0.626,-0.612 1.31,-1.129 2.052,-1.55 0.741,-0.421 1.552,-0.631 2.434,-0.631 1.16,0 2.04,0.293 2.644,0.88 0.602,0.586 0.903,1.326 0.903,2.219 0,0.638 -0.168,1.192 -0.504,1.664 C 7.193,3.054 6.758,3.417 6.226,3.673 6.108,3.724 5.843,3.838 5.425,4.017 5.008,4.195 4.55,4.399 4.052,4.629 3.553,4.858 3.078,5.075 2.626,5.279 2.174,5.483 1.854,5.637 1.669,5.738 1.53,5.815 1.327,5.936 1.061,6.102 0.794,6.268 0.533,6.51 0.278,6.829 0.022,7.147 -0.203,7.549 -0.4,8.034 c -0.198,0.485 -0.296,1.071 -0.296,1.76 0,0.815 0.128,1.543 0.383,2.181 0.254,0.636 0.608,1.178 1.06,1.626 0.452,0.445 0.991,0.784 1.617,1.013 0.626,0.23 1.299,0.344 2.018,0.344 0.927,0 1.767,-0.128 2.521,-0.382 0.753,-0.256 1.536,-0.599 2.348,-1.033 l -0.73,-2.257 c -0.626,0.51 -1.299,0.911 -2.018,1.205 -0.719,0.293 -1.483,0.44 -2.295,0.44 -0.695,0 -1.334,-0.224 -1.913,-0.669 C 1.715,11.814 1.426,11.171 1.426,10.329 1.426,9.87 1.495,9.487 1.635,9.182 1.773,8.876 1.999,8.595 2.313,8.34 2.626,8.085 3.043,7.829 3.564,7.575 4.086,7.319 4.729,7.026 5.495,6.695 6.144,6.414 6.747,6.134 7.304,5.854 7.859,5.572 8.341,5.228 8.747,4.82 9.152,4.412 9.465,3.927 9.686,3.366 c 0.22,-0.56 0.33,-1.275 0.33,-2.142 0,-0.918 -0.151,-1.715 -0.453,-2.391 C 9.263,-1.843 8.862,-2.397 8.364,-2.831 7.865,-3.265 7.274,-3.59 6.591,-3.807 5.906,-4.023 5.182,-4.132 4.417,-4.132 c -1.091,0 -2.029,0.153 -2.817,0.459 -0.789,0.306 -1.623,0.804 -2.504,1.492 z"
         style="fill:#000001;fill-opacity:1;fill-rule:nonzero;stroke:none"
         id="path4517"
         inkscape:connector-curvature="0" />
    </g>
    <g
       id="g4519"
       transform="matrix(1.762607,0,0,-1.7679188,144.37588,119.47134)"
       style="fill:#3d7edb;fill-opacity:1"
       inkscape:export-xdpi="23.452005"
       inkscape:export-ydpi="23.452005">
      <path
         d="m 0,0 c -1.418,0.641 -2.482,1.309 -3.541,2.459 -1.34,1.457 -1.859,3.17 -1.859,5.023 0,2.009 0.65,3.702 1.951,5.081 1.299,1.378 2.933,2.068 4.902,2.068 2.207,0 4.115,-0.897 5.733,-2.688 1.613,-1.794 2.246,-3.956 2.421,-6.47 0.518,-7.389 -3.523,-14.43 -11.701,-17.459 l -2.488,4.445 c 3.465,1.893 6.455,4.525 6.121,6.16 C 1.334,-0.375 0.373,-0.168 0,0"
         style="fill:#3d7edb;fill-opacity:1;fill-rule:nonzero;stroke:none"
         id="path4521"
         inkscape:connector-curvature="0" />
    </g>
    <g
       id="g4523"
       transform="matrix(1.762607,0,0,-1.7679188,148.01461,47.57273)"
       style="fill:#0b2265;fill-opacity:1"
       inkscape:export-xdpi="23.452005"
       inkscape:export-ydpi="23.452005">
      <path
         d="m 0,0 c 2.088,0 3.842,-0.709 5.26,-2.127 1.418,-1.418 2.127,-3.171 2.127,-5.258 0,-2.127 -0.721,-3.949 -2.158,-5.465 -1.438,-1.516 -3.18,-2.275 -5.229,-2.275 -2.008,0 -3.721,0.759 -5.139,2.275 -1.418,1.516 -2.127,3.338 -2.127,5.465 0,2.127 0.698,3.889 2.096,5.288 C -3.771,-0.7 -2.047,0 0,0"
         style="fill:#0b2265;fill-opacity:1;fill-rule:nonzero;stroke:none"
         id="path4525"
         inkscape:connector-curvature="0" />
    </g>
  </g>
  <g
     inkscape:label="texte"
     inkscape:groupmode="layer"
     id="layer1"
     transform="translate(0,-117)"
     style="display:inline">
    <g
       aria-label="de l'enseignement supérieur"
       transform="matrix(0.30578657,0,0,0.30670809,-14.370984,88.682683)"
       style="font-style:normal;font-weight:normal;font-size:40px;line-height:1.25;font-family:sans-serif;letter-spacing:0px;word-spacing:0px;fill:#000000;fill-opacity:1;stroke:none"
       id="flowRoot6438">
      <path
         d="m 114.44373,486.0625 v -24.552 h -2.988 v 8.424 l -0.36,0.072 c -1.296,-1.332 -2.628,-1.98 -4.176,-1.98 -3.672,0 -6.408,3.384 -6.408,9.288 0,6.012 2.772,9.288 6.48,9.288 1.584,0 2.844,-0.684 4.104,-2.016 l 0.36,0.144 v 1.332 z m -2.988,-3.888 c -1.224,1.188 -2.412,1.8 -3.708,1.8 -2.664,0 -4.104,-2.196 -4.104,-6.624 0,-4.464 1.368,-6.696 4.104,-6.696 1.224,0 2.412,0.576 3.708,1.764 z"
         style="font-style:normal;font-variant:normal;font-weight:normal;font-stretch:normal;font-size:36px;line-height:100%;font-family:'Bell Centennial Std';-inkscape-font-specification:'Bell Centennial Std';letter-spacing:-1.93000007px;word-spacing:0px;fill:#4d4d4d;fill-opacity:1;stroke:none;stroke-opacity:1"
         id="path934"
         inkscape:connector-curvature="0" />
      <path
         d="m 130.47773,478.1425 v -2.988 c 0,-4.5 -2.664,-7.128 -6.516,-7.128 -4.5,0 -7.452,3.384 -7.452,9.468 0,5.976 2.808,9.108 7.992,9.108 2.088,0 3.924,-0.612 5.976,-1.62 v -2.988 h -1.224 c -1.548,1.368 -2.916,1.98 -4.716,1.98 -3.24,0 -4.896,-1.944 -4.896,-5.832 z m -10.836,-2.088 c 0.072,-3.96 1.512,-5.94 4.212,-5.94 2.844,0 3.708,1.908 3.708,5.508 v 0.432 z"
         style="font-style:normal;font-variant:normal;font-weight:normal;font-stretch:normal;font-size:36px;line-height:100%;font-family:'Bell Centennial Std';-inkscape-font-specification:'Bell Centennial Std';letter-spacing:-1.93000007px;word-spacing:0px;fill:#4d4d4d;fill-opacity:1;stroke:none;stroke-opacity:1"
         id="path936"
         inkscape:connector-curvature="0" />
      <path
         d="m 139.88936,461.5105 v 24.552 h 3.024 v -24.552 z"
         style="font-style:normal;font-variant:normal;font-weight:normal;font-stretch:normal;font-size:36px;line-height:100%;font-family:'Bell Centennial Std';-inkscape-font-specification:'Bell Centennial Std';letter-spacing:-1.93000007px;word-spacing:0px;fill:#4d4d4d;fill-opacity:1;stroke:none;stroke-opacity:1"
         id="path938"
         inkscape:connector-curvature="0" />
      <path
         d="m 147.65517,462.0505 h -2.52 v 8.532 h 2.52 z"
         style="font-style:normal;font-variant:normal;font-weight:normal;font-stretch:normal;font-size:36px;line-height:100%;font-family:'Bell Centennial Std';-inkscape-font-specification:'Bell Centennial Std';letter-spacing:-1.93000007px;word-spacing:0px;fill:#4d4d4d;fill-opacity:1;stroke:none;stroke-opacity:1"
         id="path940"
         inkscape:connector-curvature="0" />
      <path
         d="m 162.62492,478.1425 v -2.988 c 0,-4.5 -2.664,-7.128 -6.516,-7.128 -4.5,0 -7.452,3.384 -7.452,9.468 0,5.976 2.808,9.108 7.992,9.108 2.088,0 3.924,-0.612 5.976,-1.62 v -2.988 h -1.224 c -1.548,1.368 -2.916,1.98 -4.716,1.98 -3.24,0 -4.896,-1.944 -4.896,-5.832 z m -10.836,-2.088 c 0.072,-3.96 1.512,-5.94 4.212,-5.94 2.844,0 3.708,1.908 3.708,5.508 v 0.432 z"
         style="font-style:normal;font-variant:normal;font-weight:normal;font-stretch:normal;font-size:36px;line-height:100%;font-family:'Bell Centennial Std';-inkscape-font-specification:'Bell Centennial Std';letter-spacing:-1.93000007px;word-spacing:0px;fill:#4d4d4d;fill-opacity:1;stroke:none;stroke-opacity:1"
         id="path942"
         inkscape:connector-curvature="0" />
      <path
         d="m 164.71455,468.5665 v 17.496 h 3.024 v -13.824 c 1.404,-1.152 2.628,-1.692 3.924,-1.692 2.628,0 3.132,1.584 3.132,5.004 v 10.512 h 2.988 v -11.376 c 0,-4.608 -1.908,-6.66 -5.256,-6.66 -1.764,0 -3.06,0.504 -4.464,1.764 l -0.288,-0.072 v -1.152 z"
         style="font-style:normal;font-variant:normal;font-weight:normal;font-stretch:normal;font-size:36px;line-height:100%;font-family:'Bell Centennial Std';-inkscape-font-specification:'Bell Centennial Std';letter-spacing:-1.93000007px;word-spacing:0px;fill:#4d4d4d;fill-opacity:1;stroke:none;stroke-opacity:1"
         id="path944"
         inkscape:connector-curvature="0" />
      <path
         d="m 179.52454,482.0305 v 3.204 c 1.404,0.864 3.384,1.368 5.904,1.368 3.672,0 6.156,-2.268 6.156,-5.544 0,-2.52 -1.584,-4.248 -4.68,-5.148 -2.7,-0.756 -4.248,-1.26 -4.248,-3.204 0,-1.44 1.296,-2.556 2.88,-2.556 1.764,0 3.024,0.792 3.96,2.52 h 1.404 v -3.492 c -1.764,-0.684 -3.42,-1.044 -5.04,-1.044 -3.924,0 -6.228,2.16 -6.228,5.04 0,2.556 1.584,3.996 4.716,5.04 2.736,0.864 4.248,1.26 4.248,3.312 0,1.656 -1.332,2.808 -3.384,2.808 -1.764,0 -3.276,-0.792 -4.14,-2.304 z"
         style="font-style:normal;font-variant:normal;font-weight:normal;font-stretch:normal;font-size:36px;line-height:100%;font-family:'Bell Centennial Std';-inkscape-font-specification:'Bell Centennial Std';letter-spacing:-1.93000007px;word-spacing:0px;fill:#4d4d4d;fill-opacity:1;stroke:none;stroke-opacity:1"
         id="path946"
         inkscape:connector-curvature="0" />
      <path
         d="m 206.33492,478.1425 v -2.988 c 0,-4.5 -2.664,-7.128 -6.516,-7.128 -4.5,0 -7.452,3.384 -7.452,9.468 0,5.976 2.808,9.108 7.992,9.108 2.088,0 3.924,-0.612 5.976,-1.62 v -2.988 h -1.224 c -1.548,1.368 -2.916,1.98 -4.716,1.98 -3.24,0 -4.896,-1.944 -4.896,-5.832 z m -10.836,-2.088 c 0.072,-3.96 1.512,-5.94 4.212,-5.94 2.844,0 3.708,1.908 3.708,5.508 v 0.432 z"
         style="font-style:normal;font-variant:normal;font-weight:normal;font-stretch:normal;font-size:36px;line-height:100%;font-family:'Bell Centennial Std';-inkscape-font-specification:'Bell Centennial Std';letter-spacing:-1.93000007px;word-spacing:0px;fill:#4d4d4d;fill-opacity:1;stroke:none;stroke-opacity:1"
         id="path948"
         inkscape:connector-curvature="0" />
      <path
         d="m 208.28054,461.5105 v 2.916 h 3.816 v -2.916 z m 3.276,7.056 h -3.024 v 17.496 h 3.024 z"
         style="font-style:normal;font-variant:normal;font-weight:normal;font-stretch:normal;font-size:36px;line-height:100%;font-family:'Bell Centennial Std';-inkscape-font-specification:'Bell Centennial Std';letter-spacing:-1.93000007px;word-spacing:0px;fill:#4d4d4d;fill-opacity:1;stroke:none;stroke-opacity:1"
         id="path950"
         inkscape:connector-curvature="0" />
      <path
         d="m 225.01036,480.3745 c -1.26,1.044 -2.448,1.548 -3.708,1.548 -2.664,0 -4.104,-1.944 -4.104,-5.832 0,-3.78 1.476,-5.796 4.104,-5.796 1.332,0 2.484,0.504 3.708,1.548 z m 2.988,-11.808 h -2.988 v 1.116 l -0.36,0.108 c -1.296,-1.224 -2.52,-1.764 -4.104,-1.764 -3.78,0 -6.444,2.916 -6.444,8.172 0,5.004 2.664,7.992 6.408,7.992 1.548,0 2.844,-0.54 4.176,-1.692 l 0.324,0.036 c 0.036,0.432 0.036,0.864 0.036,1.26 0,3.456 -1.152,5.04 -4.068,5.04 -2.376,0 -3.96,-0.648 -5.436,-2.484 h -1.26 v 3.6 c 2.16,1.08 4.5,1.62 6.588,1.62 2.952,0 5.328,-1.152 6.264,-2.88 0.828,-1.548 0.864,-3.42 0.864,-6.012 z"
         style="font-style:normal;font-variant:normal;font-weight:normal;font-stretch:normal;font-size:36px;line-height:100%;font-family:'Bell Centennial Std';-inkscape-font-specification:'Bell Centennial Std';letter-spacing:-1.93000007px;word-spacing:0px;fill:#4d4d4d;fill-opacity:1;stroke:none;stroke-opacity:1"
         id="path952"
         inkscape:connector-curvature="0" />
      <path
         d="m 231.07236,468.5665 v 17.496 h 3.024 v -13.824 c 1.404,-1.152 2.628,-1.692 3.924,-1.692 2.628,0 3.132,1.584 3.132,5.004 v 10.512 h 2.988 v -11.376 c 0,-4.608 -1.908,-6.66 -5.256,-6.66 -1.764,0 -3.06,0.504 -4.464,1.764 l -0.288,-0.072 v -1.152 z"
         style="font-style:normal;font-variant:normal;font-weight:normal;font-stretch:normal;font-size:36px;line-height:100%;font-family:'Bell Centennial Std';-inkscape-font-specification:'Bell Centennial Std';letter-spacing:-1.93000007px;word-spacing:0px;fill:#4d4d4d;fill-opacity:1;stroke:none;stroke-opacity:1"
         id="path954"
         inkscape:connector-curvature="0" />
      <path
         d="m 260.13836,478.1425 v -2.988 c 0,-4.5 -2.664,-7.128 -6.516,-7.128 -4.5,0 -7.452,3.384 -7.452,9.468 0,5.976 2.808,9.108 7.992,9.108 2.088,0 3.924,-0.612 5.976,-1.62 v -2.988 h -1.224 c -1.548,1.368 -2.916,1.98 -4.716,1.98 -3.24,0 -4.896,-1.944 -4.896,-5.832 z m -10.836,-2.088 c 0.072,-3.96 1.512,-5.94 4.212,-5.94 2.844,0 3.708,1.908 3.708,5.508 v 0.432 z"
         style="font-style:normal;font-variant:normal;font-weight:normal;font-stretch:normal;font-size:36px;line-height:100%;font-family:'Bell Centennial Std';-inkscape-font-specification:'Bell Centennial Std';letter-spacing:-1.93000007px;word-spacing:0px;fill:#4d4d4d;fill-opacity:1;stroke:none;stroke-opacity:1"
         id="path956"
         inkscape:connector-curvature="0" />
      <path
         d="m 262.26399,468.5665 v 17.496 h 3.024 v -13.824 c 1.224,-1.152 2.376,-1.692 3.744,-1.692 2.448,0 3.204,1.584 3.204,4.86 v 10.656 h 3.024 v -13.86 c 1.404,-1.116 2.664,-1.656 3.924,-1.656 2.844,0 3.024,2.808 3.024,5.004 v 10.512 h 3.024 v -11.376 c 0,-4.428 -1.836,-6.66 -5.256,-6.66 -2.304,0 -3.744,0.828 -5.292,2.844 -0.9,-1.872 -2.592,-2.844 -4.86,-2.844 -1.656,0 -2.916,0.54 -4.176,1.764 l -0.36,-0.072 v -1.152 z"
         style="font-style:normal;font-variant:normal;font-weight:normal;font-stretch:normal;font-size:36px;line-height:100%;font-family:'Bell Centennial Std';-inkscape-font-specification:'Bell Centennial Std';letter-spacing:-1.93000007px;word-spacing:0px;fill:#4d4d4d;fill-opacity:1;stroke:none;stroke-opacity:1"
         id="path958"
         inkscape:connector-curvature="0" />
      <path
         d="m 301.27836,478.1425 v -2.988 c 0,-4.5 -2.664,-7.128 -6.516,-7.128 -4.5,0 -7.452,3.384 -7.452,9.468 0,5.976 2.808,9.108 7.992,9.108 2.088,0 3.924,-0.612 5.976,-1.62 v -2.988 h -1.224 c -1.548,1.368 -2.916,1.98 -4.716,1.98 -3.24,0 -4.896,-1.944 -4.896,-5.832 z m -10.836,-2.088 c 0.072,-3.96 1.512,-5.94 4.212,-5.94 2.844,0 3.708,1.908 3.708,5.508 v 0.432 z"
         style="font-style:normal;font-variant:normal;font-weight:normal;font-stretch:normal;font-size:36px;line-height:100%;font-family:'Bell Centennial Std';-inkscape-font-specification:'Bell Centennial Std';letter-spacing:-1.93000007px;word-spacing:0px;fill:#4d4d4d;fill-opacity:1;stroke:none;stroke-opacity:1"
         id="path960"
         inkscape:connector-curvature="0" />
      <path
         d="m 303.36799,468.5665 v 17.496 h 3.024 v -13.824 c 1.404,-1.152 2.628,-1.692 3.924,-1.692 2.628,0 3.132,1.584 3.132,5.004 v 10.512 h 2.988 v -11.376 c 0,-4.608 -1.908,-6.66 -5.256,-6.66 -1.764,0 -3.06,0.504 -4.464,1.764 l -0.288,-0.072 v -1.152 z"
         style="font-style:normal;font-variant:normal;font-weight:normal;font-stretch:normal;font-size:36px;line-height:100%;font-family:'Bell Centennial Std';-inkscape-font-specification:'Bell Centennial Std';letter-spacing:-1.93000007px;word-spacing:0px;fill:#4d4d4d;fill-opacity:1;stroke:none;stroke-opacity:1"
         id="path962"
         inkscape:connector-curvature="0" />
      <path
         d="m 320.80598,481.3105 c 0,4.32 0.432,4.752 4.788,4.752 h 2.16 v -2.052 h -1.332 c -2.52,0 -2.628,-0.288 -2.628,-2.844 v -10.512 h 3.96 v -2.088 h -3.96 v -4.68 h -2.988 v 4.68 h -3.06 v 2.088 h 3.06 z"
         style="font-style:normal;font-variant:normal;font-weight:normal;font-stretch:normal;font-size:36px;line-height:100%;font-family:'Bell Centennial Std';-inkscape-font-specification:'Bell Centennial Std';letter-spacing:-1.93000007px;word-spacing:0px;fill:#4d4d4d;fill-opacity:1;stroke:none;stroke-opacity:1"
         id="path964"
         inkscape:connector-curvature="0" />
      <path
         d="m 334.77892,482.0305 v 3.204 c 1.404,0.864 3.384,1.368 5.904,1.368 3.672,0 6.156,-2.268 6.156,-5.544 0,-2.52 -1.584,-4.248 -4.68,-5.148 -2.7,-0.756 -4.248,-1.26 -4.248,-3.204 0,-1.44 1.296,-2.556 2.88,-2.556 1.764,0 3.024,0.792 3.96,2.52 h 1.404 v -3.492 c -1.764,-0.684 -3.42,-1.044 -5.04,-1.044 -3.924,0 -6.228,2.16 -6.228,5.04 0,2.556 1.584,3.996 4.716,5.04 2.736,0.864 4.248,1.26 4.248,3.312 0,1.656 -1.332,2.808 -3.384,2.808 -1.764,0 -3.276,-0.792 -4.14,-2.304 z"
         style="font-style:normal;font-variant:normal;font-weight:normal;font-stretch:normal;font-size:36px;line-height:100%;font-family:'Bell Centennial Std';-inkscape-font-specification:'Bell Centennial Std';letter-spacing:-1.93000007px;word-spacing:0px;fill:#4d4d4d;fill-opacity:1;stroke:none;stroke-opacity:1"
         id="path966"
         inkscape:connector-curvature="0" />
      <path
         d="m 361.6253,486.0625 v -17.496 h -3.024 v 13.788 c -1.404,1.152 -2.628,1.728 -3.924,1.728 -2.628,0 -3.132,-1.728 -3.132,-4.86 v -10.656 h -2.988 v 9.576 c 0,2.268 -0.036,3.996 0.468,5.256 0.612,1.584 2.16,3.204 4.788,3.204 1.764,0 3.06,-0.504 4.464,-1.764 l 0.288,0.072 v 1.152 z"
         style="font-style:normal;font-variant:normal;font-weight:normal;font-stretch:normal;font-size:36px;line-height:100%;font-family:'Bell Centennial Std';-inkscape-font-specification:'Bell Centennial Std';letter-spacing:-1.93000007px;word-spacing:0px;fill:#4d4d4d;fill-opacity:1;stroke:none;stroke-opacity:1"
         id="path968"
         inkscape:connector-curvature="0" />
      <path
         d="m 364.66329,468.5665 v 23.004 h 2.988 v -6.876 l 0.36,-0.072 c 1.296,1.332 2.628,1.98 4.176,1.98 3.708,0 6.372,-3.348 6.372,-9.252 0,-6.012 -2.736,-9.324 -6.444,-9.324 -1.584,0 -2.844,0.684 -4.104,2.016 l -0.36,-0.144 v -1.332 z m 2.988,3.888 c 1.224,-1.188 2.412,-1.8 3.708,-1.8 2.664,0 4.104,2.196 4.104,6.624 0,4.464 -1.368,6.696 -4.104,6.696 -1.224,0 -2.448,-0.576 -3.708,-1.764 z"
         style="font-style:normal;font-variant:normal;font-weight:normal;font-stretch:normal;font-size:36px;line-height:100%;font-family:'Bell Centennial Std';-inkscape-font-specification:'Bell Centennial Std';letter-spacing:-1.93000007px;word-spacing:0px;fill:#4d4d4d;fill-opacity:1;stroke:none;stroke-opacity:1"
         id="path970"
         inkscape:connector-curvature="0" />
      <path
         d="m 393.7293,478.1425 v -2.988 c 0,-4.5 -2.664,-7.128 -6.516,-7.128 -4.5,0 -7.452,3.384 -7.452,9.468 0,5.976 2.808,9.108 7.992,9.108 2.088,0 3.924,-0.612 5.976,-1.62 v -2.988 h -1.224 c -1.548,1.368 -2.916,1.98 -4.716,1.98 -3.24,0 -4.896,-1.944 -4.896,-5.832 z m -10.836,-2.088 c 0.072,-3.96 1.512,-5.94 4.212,-5.94 2.844,0 3.708,1.908 3.708,5.508 v 0.432 z m 9.108,-17.064 h -3.816 c -1.116,1.944 -2.448,3.528 -4.032,4.824 v 0.684 h 2.016 c 1.512,-1.656 3.492,-3.168 5.832,-4.428 z"
         style="font-style:normal;font-variant:normal;font-weight:normal;font-stretch:normal;font-size:36px;line-height:100%;font-family:'Bell Centennial Std';-inkscape-font-specification:'Bell Centennial Std';letter-spacing:-1.93000007px;word-spacing:0px;fill:#4d4d4d;fill-opacity:1;stroke:none;stroke-opacity:1"
         id="path972"
         inkscape:connector-curvature="0" />
      <path
         d="m 395.81893,468.5665 v 17.496 h 3.024 v -9.72 c 0,-3.348 0.972,-4.248 4.464,-4.248 h 1.512 v -3.528 h -0.648 c -2.448,0 -4.032,0.756 -5.184,2.988 l -0.288,-0.216 c 0.108,-0.684 0.144,-1.368 0.144,-2.088 v -0.684 z"
         style="font-style:normal;font-variant:normal;font-weight:normal;font-stretch:normal;font-size:36px;line-height:100%;font-family:'Bell Centennial Std';-inkscape-font-specification:'Bell Centennial Std';letter-spacing:-1.93000007px;word-spacing:0px;fill:#4d4d4d;fill-opacity:1;stroke:none;stroke-opacity:1"
         id="path974"
         inkscape:connector-curvature="0" />
      <path
         d="m 405.76834,461.5105 v 2.916 h 3.816 v -2.916 z m 3.276,7.056 h -3.024 v 17.496 h 3.024 z"
         style="font-style:normal;font-variant:normal;font-weight:normal;font-stretch:normal;font-size:36px;line-height:100%;font-family:'Bell Centennial Std';-inkscape-font-specification:'Bell Centennial Std';letter-spacing:-1.93000007px;word-spacing:0px;fill:#4d4d4d;fill-opacity:1;stroke:none;stroke-opacity:1"
         id="path976"
         inkscape:connector-curvature="0" />
      <path
         d="m 425.48616,478.1425 v -2.988 c 0,-4.5 -2.664,-7.128 -6.516,-7.128 -4.5,0 -7.452,3.384 -7.452,9.468 0,5.976 2.808,9.108 7.992,9.108 2.088,0 3.924,-0.612 5.976,-1.62 v -2.988 h -1.224 c -1.548,1.368 -2.916,1.98 -4.716,1.98 -3.24,0 -4.896,-1.944 -4.896,-5.832 z m -10.836,-2.088 c 0.072,-3.96 1.512,-5.94 4.212,-5.94 2.844,0 3.708,1.908 3.708,5.508 v 0.432 z"
         style="font-style:normal;font-variant:normal;font-weight:normal;font-stretch:normal;font-size:36px;line-height:100%;font-family:'Bell Centennial Std';-inkscape-font-specification:'Bell Centennial Std';letter-spacing:-1.93000007px;word-spacing:0px;fill:#4d4d4d;fill-opacity:1;stroke:none;stroke-opacity:1"
         id="path978"
         inkscape:connector-curvature="0" />
      <path
         d="m 440.6078,486.0625 v -17.496 h -3.024 v 13.788 c -1.404,1.152 -2.628,1.728 -3.924,1.728 -2.628,0 -3.132,-1.728 -3.132,-4.86 v -10.656 h -2.988 v 9.576 c 0,2.268 -0.036,3.996 0.468,5.256 0.612,1.584 2.16,3.204 4.788,3.204 1.764,0 3.06,-0.504 4.464,-1.764 l 0.288,0.072 v 1.152 z"
         style="font-style:normal;font-variant:normal;font-weight:normal;font-stretch:normal;font-size:36px;line-height:100%;font-family:'Bell Centennial Std';-inkscape-font-specification:'Bell Centennial Std';letter-spacing:-1.93000007px;word-spacing:0px;fill:#4d4d4d;fill-opacity:1;stroke:none;stroke-opacity:1"
         id="path980"
         inkscape:connector-curvature="0" />
      <path
         d="m 443.6458,468.5665 v 17.496 h 3.024 v -9.72 c 0,-3.348 0.972,-4.248 4.464,-4.248 h 1.512 v -3.528 h -0.648 c -2.448,0 -4.032,0.756 -5.184,2.988 l -0.288,-0.216 c 0.108,-0.684 0.144,-1.368 0.144,-2.088 v -0.684 z"
         style="font-style:normal;font-variant:normal;font-weight:normal;font-stretch:normal;font-size:36px;line-height:100%;font-family:'Bell Centennial Std';-inkscape-font-specification:'Bell Centennial Std';letter-spacing:-1.93000007px;word-spacing:0px;fill:#4d4d4d;fill-opacity:1;stroke:none;stroke-opacity:1"
         id="path982"
         inkscape:connector-curvature="0" />
    </g>
    <g
       aria-label="agence bibliographique
"
       transform="matrix(0.30578657,0,0,0.30670809,-13.976283,76.876208)"
       style="font-style:normal;font-weight:normal;font-size:40px;line-height:1.25;font-family:sans-serif;letter-spacing:0px;word-spacing:0px;fill:#000000;fill-opacity:1;stroke:none"
       id="flowRoot6438-4">
      <path
         d="m 112.93173,474.0385 c 0,-4.032 -2.124,-5.904 -6.624,-5.904 -1.8,0 -3.492,0.36 -5.292,1.008 v 3.492 h 1.44 c 1.152,-1.368 2.52,-2.052 3.996,-2.052 2.376,0 3.492,0.756 3.492,2.988 v 1.08 l -1.836,0.324 c -5.256,1.008 -8.064,2.448 -8.064,6.192 0,3.06 2.016,5.328 5.184,5.328 1.836,0 3.42,-0.684 4.716,-2.016 v 1.584 h 2.988 z m -2.988,8.352 c -1.188,1.044 -2.304,1.548 -3.528,1.548 -1.872,0 -3.204,-1.296 -3.204,-2.952 0,-2.34 2.16,-3.42 6.732,-4.32 z"
         style="font-style:normal;font-variant:normal;font-weight:normal;font-stretch:normal;font-size:36px;line-height:100%;font-family:'Bell Centennial Std';-inkscape-font-specification:'Bell Centennial Std';letter-spacing:-1.93000007px;word-spacing:0px;fill:#4d4d4d;fill-opacity:1;stroke:none;stroke-opacity:1"
         id="path891"
         inkscape:connector-curvature="0" />
      <path
         d="m 126.01317,480.3745 c -1.26,1.044 -2.448,1.548 -3.708,1.548 -2.664,0 -4.104,-1.944 -4.104,-5.832 0,-3.78 1.476,-5.796 4.104,-5.796 1.332,0 2.484,0.504 3.708,1.548 z m 2.988,-11.808 h -2.988 v 1.116 l -0.36,0.108 c -1.296,-1.224 -2.52,-1.764 -4.104,-1.764 -3.78,0 -6.444,2.916 -6.444,8.172 0,5.004 2.664,7.992 6.408,7.992 1.548,0 2.844,-0.54 4.176,-1.692 l 0.324,0.036 c 0.036,0.432 0.036,0.864 0.036,1.26 0,3.456 -1.152,5.04 -4.068,5.04 -2.376,0 -3.96,-0.648 -5.436,-2.484 h -1.26 v 3.6 c 2.16,1.08 4.5,1.62 6.588,1.62 2.952,0 5.328,-1.152 6.264,-2.88 0.828,-1.548 0.864,-3.42 0.864,-6.012 z"
         style="font-style:normal;font-variant:normal;font-weight:normal;font-stretch:normal;font-size:36px;line-height:100%;font-family:'Bell Centennial Std';-inkscape-font-specification:'Bell Centennial Std';letter-spacing:-1.93000007px;word-spacing:0px;fill:#4d4d4d;fill-opacity:1;stroke:none;stroke-opacity:1"
         id="path893"
         inkscape:connector-curvature="0" />
      <path
         d="m 145.07117,478.1425 v -2.988 c 0,-4.5 -2.664,-7.128 -6.516,-7.128 -4.5,0 -7.452,3.384 -7.452,9.468 0,5.976 2.808,9.108 7.992,9.108 2.088,0 3.924,-0.612 5.976,-1.62 v -2.988 h -1.224 c -1.548,1.368 -2.916,1.98 -4.716,1.98 -3.24,0 -4.896,-1.944 -4.896,-5.832 z m -10.836,-2.088 c 0.072,-3.96 1.512,-5.94 4.212,-5.94 2.844,0 3.708,1.908 3.708,5.508 v 0.432 z"
         style="font-style:normal;font-variant:normal;font-weight:normal;font-stretch:normal;font-size:36px;line-height:100%;font-family:'Bell Centennial Std';-inkscape-font-specification:'Bell Centennial Std';letter-spacing:-1.93000007px;word-spacing:0px;fill:#4d4d4d;fill-opacity:1;stroke:none;stroke-opacity:1"
         id="path895"
         inkscape:connector-curvature="0" />
      <path
         d="m 147.1608,468.5665 v 17.496 h 3.024 v -13.824 c 1.404,-1.152 2.628,-1.692 3.924,-1.692 2.628,0 3.132,1.584 3.132,5.004 v 10.512 h 2.988 v -11.376 c 0,-4.608 -1.908,-6.66 -5.256,-6.66 -1.764,0 -3.06,0.504 -4.464,1.764 l -0.288,-0.072 v -1.152 z"
         style="font-style:normal;font-variant:normal;font-weight:normal;font-stretch:normal;font-size:36px;line-height:100%;font-family:'Bell Centennial Std';-inkscape-font-specification:'Bell Centennial Std';letter-spacing:-1.93000007px;word-spacing:0px;fill:#4d4d4d;fill-opacity:1;stroke:none;stroke-opacity:1"
         id="path897"
         inkscape:connector-curvature="0" />
      <path
         d="m 175.2548,481.3465 h -1.368 c -1.08,1.692 -2.376,2.484 -4.104,2.484 -2.736,0 -4.464,-2.376 -4.464,-6.624 0,-4.212 1.764,-6.552 4.536,-6.552 1.764,0 2.916,0.792 3.996,2.556 h 1.404 v -3.492 c -1.836,-0.972 -3.456,-1.62 -5.328,-1.62 -4.536,0 -7.704,3.528 -7.704,9.108 0,5.868 3.132,9.324 7.776,9.324 1.836,0 3.492,-0.576 5.256,-1.728 z"
         style="font-style:normal;font-variant:normal;font-weight:normal;font-stretch:normal;font-size:36px;line-height:100%;font-family:'Bell Centennial Std';-inkscape-font-specification:'Bell Centennial Std';letter-spacing:-1.93000007px;word-spacing:0px;fill:#4d4d4d;fill-opacity:1;stroke:none;stroke-opacity:1"
         id="path899"
         inkscape:connector-curvature="0" />
      <path
         d="m 189.83586,478.1425 v -2.988 c 0,-4.5 -2.664,-7.128 -6.516,-7.128 -4.5,0 -7.452,3.384 -7.452,9.468 0,5.976 2.808,9.108 7.992,9.108 2.088,0 3.924,-0.612 5.976,-1.62 v -2.988 h -1.224 c -1.548,1.368 -2.916,1.98 -4.716,1.98 -3.24,0 -4.896,-1.944 -4.896,-5.832 z m -10.836,-2.088 c 0.072,-3.96 1.512,-5.94 4.212,-5.94 2.844,0 3.708,1.908 3.708,5.508 v 0.432 z"
         style="font-style:normal;font-variant:normal;font-weight:normal;font-stretch:normal;font-size:36px;line-height:100%;font-family:'Bell Centennial Std';-inkscape-font-specification:'Bell Centennial Std';letter-spacing:-1.93000007px;word-spacing:0px;fill:#4d4d4d;fill-opacity:1;stroke:none;stroke-opacity:1"
         id="path901"
         inkscape:connector-curvature="0" />
      <path
         d="m 202.01948,461.5105 h -3.024 v 24.552 h 3.024 v -1.332 l 0.324,-0.108 c 1.26,1.332 2.592,1.98 4.14,1.98 3.708,0 6.444,-3.276 6.444,-9.288 0,-5.904 -2.7,-9.288 -6.408,-9.288 -1.548,0 -2.88,0.648 -4.176,1.98 l -0.324,-0.072 z m 0,10.908 c 1.26,-1.188 2.448,-1.764 3.672,-1.764 2.736,0 4.104,2.232 4.104,6.696 0,4.428 -1.404,6.624 -4.068,6.624 -1.296,0 -2.484,-0.612 -3.708,-1.8 z"
         style="font-style:normal;font-variant:normal;font-weight:normal;font-stretch:normal;font-size:36px;line-height:100%;font-family:'Bell Centennial Std';-inkscape-font-specification:'Bell Centennial Std';letter-spacing:-1.93000007px;word-spacing:0px;fill:#4d4d4d;fill-opacity:1;stroke:none;stroke-opacity:1"
         id="path903"
         inkscape:connector-curvature="0" />
      <path
         d="m 214.92148,461.5105 v 2.916 h 3.816 v -2.916 z m 3.276,7.056 h -3.024 v 17.496 h 3.024 z"
         style="font-style:normal;font-variant:normal;font-weight:normal;font-stretch:normal;font-size:36px;line-height:100%;font-family:'Bell Centennial Std';-inkscape-font-specification:'Bell Centennial Std';letter-spacing:-1.93000007px;word-spacing:0px;fill:#4d4d4d;fill-opacity:1;stroke:none;stroke-opacity:1"
         id="path905"
         inkscape:connector-curvature="0" />
      <path
         d="m 224.66729,461.5105 h -3.024 v 24.552 h 3.024 v -1.332 l 0.324,-0.108 c 1.26,1.332 2.592,1.98 4.14,1.98 3.708,0 6.444,-3.276 6.444,-9.288 0,-5.904 -2.7,-9.288 -6.408,-9.288 -1.548,0 -2.88,0.648 -4.176,1.98 l -0.324,-0.072 z m 0,10.908 c 1.26,-1.188 2.448,-1.764 3.672,-1.764 2.736,0 4.104,2.232 4.104,6.696 0,4.428 -1.404,6.624 -4.068,6.624 -1.296,0 -2.484,-0.612 -3.708,-1.8 z"
         style="font-style:normal;font-variant:normal;font-weight:normal;font-stretch:normal;font-size:36px;line-height:100%;font-family:'Bell Centennial Std';-inkscape-font-specification:'Bell Centennial Std';letter-spacing:-1.93000007px;word-spacing:0px;fill:#4d4d4d;fill-opacity:1;stroke:none;stroke-opacity:1"
         id="path907"
         inkscape:connector-curvature="0" />
      <path
         d="m 238.17623,461.5105 v 24.552 h 3.024 v -24.552 z"
         style="font-style:normal;font-variant:normal;font-weight:normal;font-stretch:normal;font-size:36px;line-height:100%;font-family:'Bell Centennial Std';-inkscape-font-specification:'Bell Centennial Std';letter-spacing:-1.93000007px;word-spacing:0px;fill:#4d4d4d;fill-opacity:1;stroke:none;stroke-opacity:1"
         id="path909"
         inkscape:connector-curvature="0" />
      <path
         d="m 244.35805,461.5105 v 2.916 h 3.816 v -2.916 z m 3.276,7.056 h -3.024 v 17.496 h 3.024 z"
         style="font-style:normal;font-variant:normal;font-weight:normal;font-stretch:normal;font-size:36px;line-height:100%;font-family:'Bell Centennial Std';-inkscape-font-specification:'Bell Centennial Std';letter-spacing:-1.93000007px;word-spacing:0px;fill:#4d4d4d;fill-opacity:1;stroke:none;stroke-opacity:1"
         id="path911"
         inkscape:connector-curvature="0" />
      <path
         d="m 257.48786,468.0265 c -4.428,0 -7.416,3.456 -7.416,9 0,6.048 2.772,9.576 7.524,9.576 4.644,0 7.488,-3.384 7.488,-9.36 0,-5.904 -2.808,-9.216 -7.596,-9.216 z m 0.036,2.52 c 2.916,0 4.464,2.268 4.464,6.66 0,4.5 -1.692,6.876 -4.392,6.876 -2.844,0 -4.428,-2.376 -4.428,-7.02 0,-4.284 1.656,-6.516 4.356,-6.516 z"
         style="font-style:normal;font-variant:normal;font-weight:normal;font-stretch:normal;font-size:36px;line-height:100%;font-family:'Bell Centennial Std';-inkscape-font-specification:'Bell Centennial Std';letter-spacing:-1.93000007px;word-spacing:0px;fill:#4d4d4d;fill-opacity:1;stroke:none;stroke-opacity:1"
         id="path913"
         inkscape:connector-curvature="0" />
      <path
         d="m 277.50943,480.3745 c -1.26,1.044 -2.448,1.548 -3.708,1.548 -2.664,0 -4.104,-1.944 -4.104,-5.832 0,-3.78 1.476,-5.796 4.104,-5.796 1.332,0 2.484,0.504 3.708,1.548 z m 2.988,-11.808 h -2.988 v 1.116 l -0.36,0.108 c -1.296,-1.224 -2.52,-1.764 -4.104,-1.764 -3.78,0 -6.444,2.916 -6.444,8.172 0,5.004 2.664,7.992 6.408,7.992 1.548,0 2.844,-0.54 4.176,-1.692 l 0.324,0.036 c 0.036,0.432 0.036,0.864 0.036,1.26 0,3.456 -1.152,5.04 -4.068,5.04 -2.376,0 -3.96,-0.648 -5.436,-2.484 h -1.26 v 3.6 c 2.16,1.08 4.5,1.62 6.588,1.62 2.952,0 5.328,-1.152 6.264,-2.88 0.828,-1.548 0.864,-3.42 0.864,-6.012 z"
         style="font-style:normal;font-variant:normal;font-weight:normal;font-stretch:normal;font-size:36px;line-height:100%;font-family:'Bell Centennial Std';-inkscape-font-specification:'Bell Centennial Std';letter-spacing:-1.93000007px;word-spacing:0px;fill:#4d4d4d;fill-opacity:1;stroke:none;stroke-opacity:1"
         id="path915"
         inkscape:connector-curvature="0" />
      <path
         d="m 283.57142,468.5665 v 17.496 h 3.024 v -9.72 c 0,-3.348 0.972,-4.248 4.464,-4.248 h 1.512 v -3.528 h -0.648 c -2.448,0 -4.032,0.756 -5.184,2.988 l -0.288,-0.216 c 0.108,-0.684 0.144,-1.368 0.144,-2.088 v -0.684 z"
         style="font-style:normal;font-variant:normal;font-weight:normal;font-stretch:normal;font-size:36px;line-height:100%;font-family:'Bell Centennial Std';-inkscape-font-specification:'Bell Centennial Std';letter-spacing:-1.93000007px;word-spacing:0px;fill:#4d4d4d;fill-opacity:1;stroke:none;stroke-opacity:1"
         id="path917"
         inkscape:connector-curvature="0" />
      <path
         d="m 305.18486,474.0385 c 0,-4.032 -2.124,-5.904 -6.624,-5.904 -1.8,0 -3.492,0.36 -5.292,1.008 v 3.492 h 1.44 c 1.152,-1.368 2.52,-2.052 3.996,-2.052 2.376,0 3.492,0.756 3.492,2.988 v 1.08 l -1.836,0.324 c -5.256,1.008 -8.064,2.448 -8.064,6.192 0,3.06 2.016,5.328 5.184,5.328 1.836,0 3.42,-0.684 4.716,-2.016 v 1.584 h 2.988 z m -2.988,8.352 c -1.188,1.044 -2.304,1.548 -3.528,1.548 -1.872,0 -3.204,-1.296 -3.204,-2.952 0,-2.34 2.16,-3.42 6.732,-4.32 z"
         style="font-style:normal;font-variant:normal;font-weight:normal;font-stretch:normal;font-size:36px;line-height:100%;font-family:'Bell Centennial Std';-inkscape-font-specification:'Bell Centennial Std';letter-spacing:-1.93000007px;word-spacing:0px;fill:#4d4d4d;fill-opacity:1;stroke:none;stroke-opacity:1"
         id="path919"
         inkscape:connector-curvature="0" />
      <path
         d="m 307.55517,468.5665 v 23.004 h 2.988 v -6.876 l 0.36,-0.072 c 1.296,1.332 2.628,1.98 4.176,1.98 3.708,0 6.372,-3.348 6.372,-9.252 0,-6.012 -2.736,-9.324 -6.444,-9.324 -1.584,0 -2.844,0.684 -4.104,2.016 l -0.36,-0.144 v -1.332 z m 2.988,3.888 c 1.224,-1.188 2.412,-1.8 3.708,-1.8 2.664,0 4.104,2.196 4.104,6.624 0,4.464 -1.368,6.696 -4.104,6.696 -1.224,0 -2.448,-0.576 -3.708,-1.764 z"
         style="font-style:normal;font-variant:normal;font-weight:normal;font-stretch:normal;font-size:36px;line-height:100%;font-family:'Bell Centennial Std';-inkscape-font-specification:'Bell Centennial Std';letter-spacing:-1.93000007px;word-spacing:0px;fill:#4d4d4d;fill-opacity:1;stroke:none;stroke-opacity:1"
         id="path921"
         inkscape:connector-curvature="0" />
      <path
         d="m 323.62517,461.5105 v 24.552 h 3.024 v -13.86 c 1.404,-1.116 2.628,-1.656 3.924,-1.656 2.736,0 3.132,1.584 3.132,5.616 v 9.9 h 2.988 v -11.268 c 0,-5.004 -2.232,-6.768 -5.256,-6.768 -1.764,0 -3.06,0.504 -4.464,1.764 l -0.324,-0.072 v -8.208 z"
         style="font-style:normal;font-variant:normal;font-weight:normal;font-stretch:normal;font-size:36px;line-height:100%;font-family:'Bell Centennial Std';-inkscape-font-specification:'Bell Centennial Std';letter-spacing:-1.93000007px;word-spacing:0px;fill:#4d4d4d;fill-opacity:1;stroke:none;stroke-opacity:1"
         id="path923"
         inkscape:connector-curvature="0" />
      <path
         d="m 339.55117,461.5105 v 2.916 h 3.816 v -2.916 z m 3.276,7.056 h -3.024 v 17.496 h 3.024 z"
         style="font-style:normal;font-variant:normal;font-weight:normal;font-stretch:normal;font-size:36px;line-height:100%;font-family:'Bell Centennial Std';-inkscape-font-specification:'Bell Centennial Std';letter-spacing:-1.93000007px;word-spacing:0px;fill:#4d4d4d;fill-opacity:1;stroke:none;stroke-opacity:1"
         id="path925"
         inkscape:connector-curvature="0" />
      <path
         d="m 356.28099,491.5705 h 3.024 v -23.004 h -3.024 v 1.332 l -0.36,0.144 c -1.368,-1.44 -2.628,-2.016 -4.104,-2.016 -3.672,0 -6.444,3.312 -6.444,9.324 0,5.904 2.736,9.252 6.408,9.252 1.548,0 2.88,-0.648 4.176,-1.98 l 0.324,0.072 z m 0,-9.36 c -1.296,1.188 -2.484,1.764 -3.708,1.764 -2.736,0 -4.068,-2.232 -4.068,-6.696 0,-4.428 1.404,-6.624 4.068,-6.624 1.296,0 2.484,0.612 3.708,1.8 z"
         style="font-style:normal;font-variant:normal;font-weight:normal;font-stretch:normal;font-size:36px;line-height:100%;font-family:'Bell Centennial Std';-inkscape-font-specification:'Bell Centennial Std';letter-spacing:-1.93000007px;word-spacing:0px;fill:#4d4d4d;fill-opacity:1;stroke:none;stroke-opacity:1"
         id="path927"
         inkscape:connector-curvature="0" />
      <path
         d="m 375.37498,486.0625 v -17.496 h -3.024 v 13.788 c -1.404,1.152 -2.628,1.728 -3.924,1.728 -2.628,0 -3.132,-1.728 -3.132,-4.86 v -10.656 h -2.988 v 9.576 c 0,2.268 -0.036,3.996 0.468,5.256 0.612,1.584 2.16,3.204 4.788,3.204 1.764,0 3.06,-0.504 4.464,-1.764 l 0.288,0.072 v 1.152 z"
         style="font-style:normal;font-variant:normal;font-weight:normal;font-stretch:normal;font-size:36px;line-height:100%;font-family:'Bell Centennial Std';-inkscape-font-specification:'Bell Centennial Std';letter-spacing:-1.93000007px;word-spacing:0px;fill:#4d4d4d;fill-opacity:1;stroke:none;stroke-opacity:1"
         id="path929"
         inkscape:connector-curvature="0" />
      <path
         d="m 391.40899,478.1425 v -2.988 c 0,-4.5 -2.664,-7.128 -6.516,-7.128 -4.5,0 -7.452,3.384 -7.452,9.468 0,5.976 2.808,9.108 7.992,9.108 2.088,0 3.924,-0.612 5.976,-1.62 v -2.988 h -1.224 c -1.548,1.368 -2.916,1.98 -4.716,1.98 -3.24,0 -4.896,-1.944 -4.896,-5.832 z m -10.836,-2.088 c 0.072,-3.96 1.512,-5.94 4.212,-5.94 2.844,0 3.708,1.908 3.708,5.508 v 0.432 z"
         style="font-style:normal;font-variant:normal;font-weight:normal;font-stretch:normal;font-size:36px;line-height:100%;font-family:'Bell Centennial Std';-inkscape-font-specification:'Bell Centennial Std';letter-spacing:-1.93000007px;word-spacing:0px;fill:#4d4d4d;fill-opacity:1;stroke:none;stroke-opacity:1"
         id="path931"
         inkscape:connector-curvature="0" />
    </g>
  </g>
</svg>
